<svg display="none" xmlns="http://www.w3.org/2000/svg" xmlns:xlink="http://www.w3.org/1999/xlink" x="0px" y="0px"
	 width="20px" height="20px" viewBox="0 0 20 20">
<g id="account_icon_blue">
	<path fill="#082754" d="M9.5,9.5c-2.624,0-4.75-2.126-4.75-4.75S6.876,0,9.5,0c2.623,0,4.75,2.126,4.75,4.75S12.123,9.5,9.5,9.5z
		 M9.5,11.875c5.248,0,9.5,2.139,9.5,4.75V19H0v-2.375C0,14.014,4.251,11.875,9.5,11.875z"/>
</g>
<g id="basket_icon_blue">
	<path fill="#082754" d="M14.25,1.949v2.437H19V19H0V4.385h4.75V0h9.5V1.949z M12,4V2H7v2H12z"/>
</g>
<g id="wishlist_icon_blue">
	<path fill="none" stroke="#082754" stroke-miterlimit="10" d="M0.75,18.05V0.95h13.5v17.1L7.5,14.153L0.75,18.05z"/>
</g>
</svg>