<?xml version="1.0" standalone="no"?>
<!DOCTYPE svg PUBLIC "-//W3C//DTD SVG 1.1//EN" "http://www.w3.org/Graphics/SVG/1.1/DTD/svg11.dtd" >
<svg xmlns="http://www.w3.org/2000/svg">
<metadata>Generated by IcoMoon</metadata>
<defs>
<font id="icomoon" horiz-adv-x="1024">
<font-face units-per-em="1024" ascent="960" descent="-64" />
<missing-glyph horiz-adv-x="1024" />
<glyph unicode="&#x20;" horiz-adv-x="512" d="" />
<glyph unicode="&#xe900;" glyph-name="support" horiz-adv-x="1170" d="M185.246 31.915c-6.729-12.532-1.999-28.087 10.533-34.816 12.581-6.68 28.136-1.902 34.767 10.581 0.293 0.585 0.585 1.219 0.878 1.853 58.222 123.563 49.786 268.093-22.284 384.049-32.866 54.272-47.689 117.614-42.277 180.858 10.289 118.882 90.648 215.771 209.14 255.512-15.896-87.381-15.701-176.957 0.634-264.241-64.853-47.884-78.555-139.264-30.671-204.020 47.835-64.853 139.264-78.604 204.069-30.769 65.048 47.884 78.799 139.264 30.769 204.117-13.41 18.042-30.671 32.719-50.615 43.008l-0.634 13.263c-4.047 83.188 10.24 166.229 41.691 243.371l3.121 7.509c107.569-19.602 168.521-82.164 186.124-190.562 1.853-11.898 3.023-23.845 3.365-35.84 3.17-64.317 40.18-121.954 97.524-151.454 4.096-1.902 7.851-4.389 11.166-7.509 2.633-4.047 2.146-9.265-1.073-12.776-12.093-12.434-27.599-20.919-44.422-24.82-11.898-3.023-19.846-13.946-19.261-26.088l2.974-58.856c-23.357-5.071-47.153-7.217-70.997-6.437-25.405 1.122-47.055-18.627-48.128-44.227-0.195-5.218 0.488-10.338 1.999-15.36 7.119-23.406 29.16-64.024 95.183-78.946l-1.17-4.34c-4.047-15.994-4.925-32.719-2.633-49.103 0.244-1.024 0.536-2.194 0.926-3.17 3.998-10.825 2.926-22.723-2.828-32.719-5.608-9.947-15.311-16.92-26.575-18.822-53.979-9.606-109.324-9.167-163.45 1.317-7.461 1.999-86.601 23.552-117.76 71.241-7.753 11.849-23.65 15.311-35.547 7.558-11.898-7.851-15.214-23.698-7.509-35.645 32.573-49.835 97.134-76.507 129.755-87.235v-72.655c0-14.141 11.557-25.649 25.795-25.649 14.336 0 25.746 11.508 25.746 25.649v61.635c51.005-7.119 102.595-6.046 153.21 3.17 49.006 9.167 81.335 56.418 72.119 105.472-0.78 3.95-1.707 7.899-3.072 11.8-0.244 8.241 0.585 16.53 2.536 24.576l3.17 13.068c5.705 22.967-8.338 46.178-31.305 51.883-0.878 0.195-1.804 0.39-2.779 0.585-30.866 5.51-52.224 18.725-61.635 38.278 33.89-0.536 67.73 4.389 100.352 14.141 10.874 3.755 17.847 14.141 17.262 25.649l-2.877 60.709c19.066 6.973 36.133 18.286 49.932 33.109 18.334 20.382 21.065 50.274 6.827 73.533-7.753 11.41-18.432 20.48-30.915 26.234-41.399 20.919-68.364 62.318-70.9 108.642-0.585 13.995-1.804 27.892-3.998 41.691-20.285 124.977-94.452 204.069-215.138 230.595l0.878 1.853c9.996 21.602 0.488 47.153-21.211 57.1-3.901 1.902-8.094 3.072-12.337 3.608-41.838 5.705-84.212 5.705-126.001 0-22.43-3.316-40.424-20.382-44.91-42.715l-4.632-23.503c-153.405-39.156-259.852-158.964-272.091-308.273-6.339-73.972 11.020-148.139 49.493-211.627 62.952-101.132 70.363-227.279 19.7-335.043zM463.189 353.646c-52.273 0-94.598 42.52-94.549 94.793 0.049 52.175 42.52 94.549 94.744 94.501 52.126-0.049 94.501-42.277 94.501-94.403 0.049-52.37-42.325-94.891-94.598-94.891-0.049 0-0.049 0-0.098 0zM442.904 900.657c0.146 0.975 0.975 1.804 1.95 1.95 33.402 4.437 67.194 4.876 100.645 1.122l-10.825-23.601v-1.073l-10.289-24.625c-33.841-82.603-49.64-171.496-46.080-260.73-4.925 0.488-9.801 0.731-14.677 0.731-12.971-0.049-25.844-1.755-38.278-5.218-14.775 89.039-11.557 180.078 9.411 267.849l8.143 43.593zM948.37 243.054c-2.731-13.946 6.485-27.453 20.431-29.989h0.098l69.876-13.166c13.946-2.584 27.355 6.632 29.94 20.675 2.731 13.946-6.534 27.355-20.529 29.94v0l-69.925 13.068c-13.897 2.584-27.258-6.583-29.891-20.529v0zM947.688 78.629c14.287 0 25.698 11.654 25.698 25.746 0 4.73-1.219 9.216-3.755 13.312l-33.256 54.906c-7.948 11.849-23.893 14.824-35.742 6.973-10.874-7.461-14.434-21.943-8.143-33.499l33.256-55.052c4.681-7.704 12.922-12.386 21.943-12.386zM951.686 307.419c5.608 0 11.166 1.902 15.555 5.364l51.395 39.253c11.313 8.68 13.556 24.869 4.876 36.279-8.68 11.313-24.917 13.41-36.181 4.827l-51.444-39.302c-11.362-8.338-13.897-24.381-5.608-35.889 4.925-6.827 12.971-10.825 21.406-10.533z" />
<glyph unicode="&#xe901;" glyph-name="wishlist-outline" horiz-adv-x="808" d="M805.942-65.132l-401.3 231.693-401.3-231.693v1024.647h802.654v-1024.647zM404.642 259.907l320.458-185.075v803.84h-640.916v-803.84l320.458 185.075z" />
<glyph unicode="&#xe902;" glyph-name="partner" horiz-adv-x="1170" d="M84.797 587.703c0-4.876 0-10.045 0-13.751v-24.186l1.122-46.665 1.95-89.234 1.073-41.594 0.634-20.529c0.146-8.972 2.048-17.798 5.413-26.039 6.534-15.848 18.627-28.721 34.085-36.181 17.798-8.777 38.619-8.923 56.613-0.585-1.658-71.192-2.536-149.26-2.536-227.328v-34.718c0-16.969 4.925-33.597 14.141-47.982 18.286-28.672 51.444-43.983 85.236-39.741 21.943 2.877 41.935 14.043 55.881 31.159 4.34-4.73 9.265-8.972 14.629-12.532 12.922-8.485 28.087-12.873 43.544-12.678 17.457 0 34.523 5.51 48.518 16.189 15.165 11.362 25.99 27.599 30.671 45.982 1.95 8.728 2.926 17.554 2.877 26.575l0.585 21.845 1.853 92.16c1.365 102.449 1.219 212.846-0.683 313.344 5.851-7.168 12.776-13.361 20.431-18.286 24.674-15.848 55.93-17.262 81.871-3.706 2.243 1.268 4.632 2.682 6.534 3.901 1.999 1.219 3.316 2.292 4.925 3.365l10.191 7.558 1.414-92.94c0-1.95 0.683-6.729 0.683-10.24 0.683-3.56 1.707-7.119 2.974-10.63 2.097-7.314 5.315-14.287 9.557-20.529 8.29-12.044 20.285-21.114 33.987-26.039 17.652-6.144 36.962-5.022 53.638 3.365-2.292-31.013-4.096-67.291-5.51-107.227-1.219-32.67-2.146-67.925-2.731-104.302l-1.024-55.101c-0.244-6.095 0.146-12.142 1.024-18.188 1.17-6.827 3.072-13.507 5.803-19.992 5.218-12.776 13.41-24.040 23.845-33.109 0-0.049 0.049-0.098 0.098-0.098 36.181-31.451 91.136-27.697 122.685 8.533l1.024-1.268c20.139-20.968 49.883-29.355 78.117-22.089 15.994 4.145 30.427 12.873 41.545 25.161 11.8 13.214 19.261 29.745 21.358 47.25 0.878 10.094 0.878 14.824 0.878 21.26v57.198c0 73.192-2.584 146.188-7.461 200.558 16.482-7.704 35.401-8.436 52.468-2.389 13.8 5.071 25.746 14.385 34.085 26.526 4.194 6.242 7.412 13.214 9.411 20.529 1.024 3.657 1.853 7.314 2.292 11.069 0.536 3.706 0.536 8.192 0.536 10.191l2.146 131.316v34.426c0 5.949 0 11.215 0.731 17.896-0.049 6.875-0.488 13.653-1.17 20.48-3.316 27.989-13.214 54.662-29.062 77.922-16.335 23.893-38.327 43.447-63.878 56.905-6.632 3.462-13.458 6.388-20.48 8.875-6.924 2.682-13.897 4.827-21.016 6.437-7.266 1.95-14.629 2.682-21.894 3.901h-2.731c3.852 3.121 7.412 6.583 10.874 10.24 21.943 23.308 34.426 54.126 34.767 86.26 0.78 70.607-55.881 128.488-126.44 129.268-70.558 0.829-128.536-55.832-129.317-126.44-0.488-33.256 12.19-65.39 35.255-89.429 3.17-3.608 6.583-7.070 10.191-10.24h-3.17c-6.875-0.634-13.653-1.609-20.382-2.926-7.217-1.658-14.238-3.852-21.114-6.583-7.119-2.536-13.897-5.461-20.48-8.923-25.551-13.556-47.494-33.109-63.683-56.905-5.071-7.558-9.606-15.506-13.41-23.796-13.019-6.632-28.428-15.019-50.42-27.112l-24.43 46.519-4.437 8.387c-1.463 2.779-3.023 5.559-5.022 9.021-3.998 6.632-8.387 12.971-13.361 18.92-21.699 25.698-51.931 42.813-85.187 48.177-4.34 0.634-8.826 1.414-13.166 1.414h-16.872c50.956 36.62 67.291 105.131 38.376 160.817-10.142 19.7-25.21 36.279-43.739 48.274-38.571 24.625-87.284 27.307-128.244 6.875-1.219-0.634-2.536-1.268-3.803-1.95-62.757-33.646-86.357-111.811-52.712-174.568 5.51-10.094 12.434-19.358 20.431-27.648 3.413-3.316 6.778-6.388 10.191-9.362h-23.552c-5.315-0.195-10.581-0.683-15.848-1.707-63.439-10.289-113.030-60.27-122.782-123.806-0.78-4.925-1.268-9.752-1.414-14.775zM261.559 718.629v0zM651.8 361.399l1.999 131.316v51.688c0.536 4.437 0.341 9.801 1.317 14.629 5.559 39.838 30.037 74.508 65.829 93.038 4.632 2.292 9.216 4.291 14.043 5.998 4.827 1.853 9.752 3.267 14.775 4.34 4.827 1.414 10.094 1.609 15.067 2.536h7.802c3.023 0.293 3.413-0.146 12.337 0.829 9.606 1.414 18.676 5.754 25.844 12.288 19.944 18.334 21.358 49.445 3.072 69.534-2.438 2.633-5.071 5.022-8.094 7.070l-3.511 2.438c-3.608 2.731-7.070 5.803-10.24 9.167-12.971 13.848-19.944 32.232-19.407 51.151 0.439 18.871 8.192 36.864 21.699 50.127 27.355 26.575 70.705 27.112 98.889 1.268 29.355-26.868 31.256-72.509 4.34-101.815-3.072-3.413-6.534-6.485-10.289-9.216l-3.072-2.292c-11.118-7.607-18.725-19.407-20.87-32.719-4.535-26.819 13.653-52.273 40.521-56.71 1.707-0.293 3.413-0.439 5.169-0.488h15.311c4.925-1.073 10.24-1.268 15.116-2.584 5.071-1.073 9.996-2.536 14.824-4.291 5.218-1.512 10.338-3.413 15.262-5.705 36.376-18.334 61.391-53.297 66.999-93.623 1.219-4.291 1.219-9.167 1.219-14.531 0-5.315 0-11.508 0-17.213v-34.426l1.999-131.413c0-3.121 0-3.803 0-5.364-0.098-1.317-0.439-2.779-0.829-4.096-1.853-8.143-7.656-15.019-15.506-18.286-1.56-0.634-3.17-1.073-4.876-1.463-15.214-3.072-29.989 6.875-33.061 21.943-0.341 1.268-0.585 2.633-0.683 3.901 0 1.219 0 4.242 0 6.29l-0.439 12.727-1.609 50.176-3.267 87.186c-0.488 6.924-6.095 12.337-13.117 12.581-7.314 0.488-13.751-4.925-14.58-12.288l-3.316-87.138-1.414-50.127v-13.166c0-2.536 0-3.95 0-7.314 0-3.121 0.195-6.29 0.731-9.411 0.536-3.608 1.365-7.266 2.584-10.825-7.997-54.028-12.093-147.749-12.093-241.518v-72.899c-0.975-13.8-9.85-25.698-22.674-30.72-12.142-4.584-25.893-2.877-36.571 4.535-3.462 2.341-6.437 5.169-9.167 8.436 1.853 7.168 2.682 14.629 2.487 22.138l-0.975 26.429-1.512 51.054c-2.341 65.731-5.949 121.661-10.728 159.013-0.341 2.438-5.022 4.291-12.727 4.486-7.753 0.244-14.775-1.853-14.775-4.486-4.681-37.352-8.29-93.282-10.679-159.013l-1.56-51.054-0.634-26.429c-0.195-5.071-1.56-10.191-3.998-14.726-4.437-9.070-12.824-15.555-22.723-17.603-9.899-2.146-20.187 0.634-27.843 7.168-3.706 3.218-6.729 7.314-8.68 11.995-0.975 2.292-1.56 4.632-1.999 7.119-0.439 3.121-0.536 6.388-0.488 9.606l-0.585 55.101c-0.585 36.328-1.463 71.339-2.633 104.204-2.243 58.709-5.218 109.763-9.216 146.627 1.268 3.803 2.243 7.704 2.828 11.654 0.536 3.072 0.683 6.193 0.683 9.216 0 3.218 0 4.779 0 7.266v13.166l-1.463 50.127-3.267 87.186c-0.585 6.68-5.949 11.898-12.678 12.19-0.049 0-0.146 0-0.195 0-7.363 0.634-13.897-4.827-14.531-12.19l-3.365-87.186-2.243-50.030v-13.166c0-2.146 0-4.974 0-6.388-0.049-1.317-0.244-2.633-0.585-3.998-0.341-1.609-0.78-3.072-1.317-4.584-5.803-14.482-22.187-21.65-36.718-15.799-5.218 1.95-9.752 5.51-12.824 10.191-1.56 2.341-2.536 4.925-3.218 7.607-0.341 1.317-0.585 2.682-0.731 4.096 0.146 1.658 0.049 2.097 0.829 5.461zM131.413 339.895c-0.926 3.998-1.122 7.997-0.585 11.995l0.585 20.529 1.122 41.643 1.999 89.186 0.829 47.202v24.088c0 4.145 0.536 7.022 0.536 10.24 0.146 3.218 0.536 6.437 1.268 9.606 7.217 40.667 39.643 72.168 80.555 78.263 3.365 0.585 6.827 0.926 10.24 0.926h38.863c13.995 0.488 27.112 6.778 36.23 17.408 17.896 20.968 15.36 52.37-5.51 70.315l-3.023 2.341-2.438 1.512-1.999 1.414c-1.365 0.926-2.584 1.95-3.852 3.023-2.487 2.048-4.876 4.291-7.119 6.632-4.34 4.73-8.094 10.045-11.118 15.799-0.146 0.293-0.244 0.488-0.39 0.731-18.432 36.133-4.096 80.408 32.037 98.889 23.357 11.557 51.102 10.289 73.387-3.413 10.533-6.729 19.261-16.043 25.112-27.112 5.9-11.166 9.021-23.552 9.021-36.133-0.049-12.044-3.121-23.942-8.777-34.621-5.803-10.63-13.995-19.846-23.845-26.722l-1.609-1.365-2.536-1.95c-1.56-1.317-3.072-2.779-4.535-4.291-5.608-6.095-9.509-13.556-11.362-21.748-5.608-25.21 10.338-50.274 35.596-55.881 1.95-0.439 3.95-0.731 5.949-0.878h26.673c3.072 0 5.9-0.634 8.875-0.634 11.508-1.414 22.723-4.876 33.061-10.24 9.947-5.12 18.968-11.849 26.624-19.944 3.755-3.998 7.119-8.241 10.191-12.727 1.414-1.95 3.072-4.681 4.876-7.412l5.022-8.143 37.108-59.099 0.585-0.975c0 0 0 0 0.049 0 5.071-7.997 15.604-10.386 23.601-5.364l34.572 21.894c-0.488-3.267-1.414-6.388-1.414-9.655-1.268-6.875-1.268-13.702-1.268-20.48v-54.906c-8.728-4.194-17.506-8.68-27.697-13.751l-4.974-2.438-3.901-1.56c-2.731-1.024-5.461-1.707-8.387-2.194-5.9-0.878-11.849-0.634-17.652 0.731-5.998 1.463-11.654 4.291-16.482 8.094-5.705 4.974-10.63 10.825-14.531 17.262l-37.4 51.151c-4.681 6.973-12.581 11.020-20.968 10.874-13.605-0.244-24.43-11.459-24.186-25.112v-1.609c-3.267-116.931-3.95-256.731-2.097-383.61l1.853-92.062 0.585-21.894c0.536-5.315 0.536-10.581 0-15.848-1.463-8.338-5.656-15.896-11.947-21.553-12.581-10.971-30.525-13.166-45.446-5.608-6.583 3.072-12.337 7.704-16.774 13.458 1.268 4.876 2.146 9.899 2.682 14.921 0 8.485 0 12.629 0 18.139l-0.829 30.72c-1.999 81.286-5.559 151.016-10.24 197.242-0.293 3.023-5.218 5.413-13.117 5.656-7.851 0.146-15.019-2.438-15.019-5.656-4.34-46.373-7.851-115.956-10.191-197.242l-0.829-30.72c0.926-7.656 0.049-15.36-2.438-22.674-4.779-11.703-15.555-19.797-28.136-21.065-1.268-0.244-2.536-0.244-3.852-0.244-18.383 0.341-33.061 15.311-32.768 33.694v34.718c-0.049 185.978-4.925 372.443-14.482 464.506-0.341 2.828-4.974 5.071-12.678 5.364-7.899 0.341-14.824-2.097-14.824-5.315-4.827-46.568-8.387-116.834-10.776-198.705-5.364-5.218-12.337-8.631-19.797-9.655-7.558-0.975-15.214 0.585-21.748 4.437-6.729 3.803-11.752 10.142-14.238 17.603h0.098zM400.677 725.26c-1.414 0-0.585 0-0.585 0h0.585z" />
<glyph unicode="&#xe903;" glyph-name="compare" horiz-adv-x="1170" d="M1169.798 603.746h-466.846l195.389-191.244-57.978-59.246-300.081 293.79 300.081 293.79 57.978-59.246-199.192-194.999h470.65v-82.846zM267.605 485.303l199.192-194.999h-466.798v-82.846h463.141l-195.486-191.342 57.978-59.246 300.178 293.79-300.178 293.839-58.027-59.197z" />
<glyph unicode="&#xe904;" glyph-name="account" d="M512 448c-141.385 0-256 114.615-256 256s114.615 256 256 256 256-114.615 256-256-114.615-256-256-256zM512 320c282.88 0 512-115.2 512-256v-128h-1024v128c0 140.8 229.12 256 512 256z" />
<glyph unicode="&#xe905;" glyph-name="back" horiz-adv-x="1325" d="M0 448l521.236 512 99.388-98.35-350.435-344.226h1054.988v-138.848h-1054.988l350.435-344.226-99.388-98.35-471.173 462.825z" />
<glyph unicode="&#xe906;" glyph-name="forwards" horiz-adv-x="1325" d="M1325 448l-521.236 512-99.388-98.35 350.435-344.226h-1054.988v-138.848h1054.988l-350.435-344.226 99.388-98.35 471.173 462.825z" />
<glyph unicode="&#xe907;" glyph-name="basket" d="M768 854.974v-131.282h256v-787.692h-1024v787.692h256v131.282c0 48.338 0 83.347 0 105.026h512zM646.737 744.421v107.789h-269.474v-107.789z" />
<glyph unicode="&#xe908;" glyph-name="burger" horiz-adv-x="1144" d="M0 960h1144.471v-155.152h-1144.471zM0 525.576h1144.471v-155.152h-1144.471zM0 91.152h1144.471v-155.152h-1144.471z" />
<glyph unicode="&#xe909;" glyph-name="checkmark" horiz-adv-x="1365" d="M512 277.333l-341.333 341.333-170.667-170.667 512-512 853.333 853.333-170.667 170.667z" />
<glyph unicode="&#xe90a;" glyph-name="close" d="M512 555.324l404.676 404.676 107.324-107.324-404.676-404.676 404.676-404.676-107.324-107.324-404.676 404.676-404.676-404.676-107.324 107.324 404.676 404.676-404.676 404.676 107.324 107.324z" />
<glyph unicode="&#xe90b;" glyph-name="contact1" horiz-adv-x="970" d="M966.159 202.56c-5.493 32.645-29.704 58.202-60.631 64l-268.9 47.36c-19.648 3.551-39.16-7.008-47.899-25.92l-25.768-55.040c-63.132 27.616-120.506 68.063-168.858 119.040-48.275 50.866-86.504 111.341-112.471 177.92l51.84 25.92c17.843 9.303 27.816 29.837 24.556 50.56l-45.777 285.44c-5.493 32.645-29.704 58.202-60.631 64h-5.457c-11.18 2.437-22.542 3.829-33.954 4.16-117.2 0-212.209-100.288-212.209-224 0-441.828 339.319-800 757.891-800 117.2 0 212.209 100.288 212.209 224 0.085 12.34-0.93 24.661-3.032 36.8z" />
<glyph unicode="&#xe90c;" glyph-name="contact2" horiz-adv-x="1186" d="M1111.579 960c40.927 0 74.105-34.379 74.105-76.787v-639.889c0-42.408-33.178-76.787-74.105-76.787h-377.443l-119.804-217.562c-4.386-8.019-12.595-12.976-21.491-12.976s-17.104 4.956-21.491 12.976l-119.804 217.562h-377.443c-40.927 0-74.105 34.379-74.105 76.787v639.889c0 42.408 33.178 76.787 74.105 76.787zM733.677 423.619c13.896 0 25.16 10.916 25.16 24.381s-11.265 24.381-25.16 24.381h-518.808c-13.896 0-25.16-10.916-25.16-24.381s11.265-24.381 25.16-24.381zM970.779 569.905c13.915 0 25.196 10.916 25.196 24.381s-11.281 24.381-25.196 24.381h-755.874c-13.915 0-25.196-10.916-25.196-24.381s11.281-24.381 25.196-24.381zM970.779 716.19c13.915 0 25.196 10.916 25.196 24.381s-11.281 24.381-25.196 24.381h-755.874c-13.915 0-25.196-10.916-25.196-24.381s11.281-24.381 25.196-24.381z" />
<glyph unicode="&#xe90d;" glyph-name="contact3" horiz-adv-x="1422" d="M1311.465 960h-1200.686c-60.935 0-110.778-48.806-110.778-108.473v-807.055c0-59.647 49.864-108.473 110.778-108.473h1200.665c60.915 0 110.778 48.826 110.778 108.473v807.055c0.021 59.667-49.864 108.473-110.758 108.473zM1251.882 155.024c15.421-14.204 16.191-37.964 1.707-53.105-7.555-7.886-17.773-11.86-27.991-11.86-9.428 0-18.855 3.383-26.285 10.189l-315.124 289.593-136.397-130.237c-7.43-7.132-17.107-10.678-26.784-10.678-9.428 0-18.876 3.383-26.264 10.189l-155.689 143.075-315.645-301.433c-7.43-7.153-17.107-10.678-26.784-10.678-9.969 0-19.958 3.811-27.471 11.351-14.797 14.856-14.485 38.637 0.687 53.126l313.189 299.090-312.648 287.331c-15.442 14.204-16.212 37.964-1.727 53.085 14.526 15.161 38.792 15.875 54.234 1.691l497.619-457.264 478.306 456.775c15.151 14.509 39.458 14.163 54.255-0.652 14.797-14.856 14.485-38.637-0.687-53.126l-313.168-299.11z" />
<glyph unicode="&#xe90e;" glyph-name="expert" horiz-adv-x="853" d="M25.638 478.532c0.534-0.679 0.534-0.679 1.058-1.347 2.317-2.949 3.62-4.514 5.052-6.005l4.379-4.4 4.036-3.853 7.518-6.71 29.509-26.694c11.743-11.572 19.183-26.832 21.108-43.499 0.18-2.766 0.18-5.54 0.011-7.967v-2.498c0-2.485 0-2.485-0.016-6.474l-3.314-42.542v-13.27c0-2.73 0.216-5.549 0.716-10.132 0.084-0.769 0.084-0.769 0.17-1.543 0.115-1.036 0.115-1.036 0.195-1.825 1.439-9.101 4.072-17.97 7.845-26.408 3.622-8.249 8.345-15.965 14.040-22.933l2.228-2.726-1.695-3.085c-16.207-29.495-36.585-71.081-59.363-120.993l-9.687-20.917-4.86-10.382-2.455-5.441-1.185-2.769c-1.051-2.713-1.492-3.911-1.945-5.35-4.546-15.21-1.014-31.697 9.318-43.641 10.866-12.298 27.336-18 43.128-15.109l5.991 1.466 3.228 1.046 6.524 2.094 12.195 2.918 49.446 16.166 7.417 2.568 4.601-9.61 11.431-23.582 17.25-34.954 2.955-5.831c1.705-3.518 3.799-6.831 6.147-9.761 10.47-12.301 26.499-18.33 42.435-15.962 15.938 2.368 29.546 12.802 35.917 27.367l16.845 44.997c16.626 45.481 29.918 84.779 39.026 115.568l2.073 7.007 5.953-4.239c5.977-4.256 12.366-7.898 18.991-10.836 32.898-13.947 70.594-10.199 100.131 9.955l5.893 4.021 2.042-6.836c9.299-31.124 22.77-70.79 38.913-114.607l16.749-44.87c6.495-14.81 20.112-25.223 36.049-27.572 15.934-2.348 31.952 3.695 42.437 16.036 2.519 2.914 4.708 6.1 6.474 9.397l2.78 5.461 5.312 12.252 11.535 23.373 11.436 23.592 4.612 9.632 7.335-2.54 70.807-23.090 6.032-1.5c16.117-2.935 32.59 2.804 43.408 15.104 10.368 11.985 13.9 28.473 9.376 43.611-0.476 1.512-0.917 2.711-1.903 5.264l-1.206 2.829-2.467 5.471-5.045 10.813-8.298 21.941c-24.848 54.533-43.036 91.906-58.386 119.138l-1.772 3.143 2.316 2.766c5.147 6.147 9.613 12.839 13.294 19.912 4.667 9.185 8.011 18.99 9.915 29.026 0.864 5.063 1.397 10.177 1.591 15.109v4.515c0 5.863 0 5.863 0.012 9.871l-3.129 46.935c-0.505 11.751 2.016 23.435 7.232 33.74 2.339 5.115 5.283 9.928 8.991 14.599 1.998 2.21 4.12 4.303 6.342 6.257l35.143 31.11c3.258 2.933 7.263 6.926 9.988 10.026 26.762 30.283 33.785 73.329 18.048 110.595-3.81 8.964-8.878 17.333-15.096 24.911-2.989 3.748-6.276 7.246-10.096 10.721l-2.237 2.371-2.232 1.922-4.244 3.742-33.261 28.992c-8.319 7.914-14.573 17.759-18.205 28.651-1.823 5.401-2.992 11.003-3.489 16.792-0.185 2.836-0.185 5.681-0.005 8.436l0.522 10.487 1.25 21.852 0.615 10.138v2.89c0 3.893 0 3.893 0.001 9.134 1.19 55.233-41.665 101.348-96.354 103.969h-3.99c-4.688 0-4.688 0-8.601 0.017l-10.276-0.824-19.93-2.104-19.455-1.462c-15.76-1.2-31.484 2.747-44.868 11.279-4.303 2.802-8.31 6.035-12.326 10.054l-2.274 2.785-3.042 3.463-6.401 6.955-25.094 28.114c-19.571 20.826-47.268 31.958-75.747 30.442-26.244-1.365-50.785-13.471-67.868-33.455l-20.23-24.186-9.531-11.106c-2.742-3.5-5.712-6.813-8.956-9.981-12.015-11.335-27.18-18.734-43.632-21.236-8.044-0.989-16.165-1.172-23.999-0.559l-24.751 0.749c-2.56 0.222-5.101-0.613-7.037-2.316-1.941-1.706-3.106-4.137-3.234-6.103 0.366-4.911 4.284-8.786 9.383-9.097l24.531-2.529c9.133-1.262 18.369-1.599 27.452-1.015 21.071 1.833 41.062 10.168 57.191 23.828 4.144 3.582 8.048 7.434 11.768 11.624l10.358 11.128 20.872 23.052c12.621 13.48 30.175 21.209 48.596 21.399 19.339 0.232 37.804-8.064 50.56-22.744l23.536-27.815 6.059-7.238 2.87-3.485 3.867-4.294c5.209-5.502 10.969-10.45 17.197-14.771 12.753-8.882 27.243-14.932 42.492-17.748 7.765-1.411 15.658-1.979 23.47-1.699l51.67 2.619 7.772-0.014c10.48-0.773 20.606-4.136 29.53-9.824 18.186-11.907 28.8-32.528 27.958-54.1 0-2.928-0.043-4.905-0.22-7.236-0.089-1.163-0.206-2.25-0.317-2.895l-0.831-10.431-1.664-21.819-0.829-11.446c-0.285-4.513-0.285-9.039-0.001-13.536 1.847-27.795 13.818-53.933 33.548-73.351l5.019-4.732 4.139-3.74 8.438-7.531 17.451-15.645 4.314-3.804 2.28-2.070 1.187-1.199c2.107-1.937 4.031-4.065 5.631-6.21 3.505-4.349 6.358-9.188 8.472-14.371 4.238-10.432 5.462-21.851 3.534-32.936-1.914-11.167-6.984-21.547-14.765-30.071-2.668-2.679-3.753-3.721-6.299-5.993l-8.859-7.744-17.678-15.348-8.798-7.69c-3.516-3.15-6.851-6.499-9.992-10.033-6.55-7.356-12.139-15.522-16.671-24.374-9.417-17.681-14.051-37.534-13.447-57.409l3.028-48.496v-7.171c0-0.931 0-0.931-0.006-2.178-0.139-2.792-0.438-5.573-0.918-8.448-1.053-5.536-2.848-10.904-5.379-16.044-10.723-20.799-32.633-33.325-55.97-31.967l-47.618 3.139c-19.827 1.538-39.715-2.077-57.68-10.465-8.857-4.292-17.116-9.731-24.696-16.287-3.794-3.074-7.376-6.403-10.63-9.869l-4.451-4.989-3.932-4.467-15.611-17.974c-1.867-2.153-1.867-2.153-3.819-4.406l-0.26-0.299c-5.386-6.209-8.313-9.461-10.342-11.353-16.923-15.85-41.506-20.329-62.88-11.469-5.221 2.137-10.092 5.048-14.349 8.555-2.252 1.761-4.349 3.711-5.809 5.38-0.917 0.79-2.084 2.085-3.952 4.275l-3.834 4.37-26.64 30.080c-0.667 0.669-1.187 1.23-2.225 2.376-1.394 1.538-2.002 2.174-2.938 3.018-20.646 20.286-48.221 31.897-76.996 32.464h-11.031l-2.237 0.032-11.531-1.271-34.206-2.522h-5.319c-1.214 0-1.214 0-2.775 0.008-22.37 1.24-42.222 14.793-51.505 35.033-2.414 4.766-4.207 9.823-5.454 16.149 0 0.764-0.076 1.54-0.276 2.998l-0.046 0.33c-0.254 1.835-0.353 2.702-0.402 3.875-0.034 0.944-0.034 0.944-0.047 1.839-0.009 0.881-0.003 1.627 0.020 3.409 0.017 1.518 0.023 2.271 0.031 3.723l2.385 42.655v8.767c0 2.030 0 2.030 0.001 3.903-0.064 4.295-0.395 8.581-0.992 12.841-3.515 25.348-15.589 48.714-34.211 66.199-2.367 2.233-4.119 3.774-6.924 6.14l-0.182 0.154c-0.549 0.462-0.549 0.462-1.133 0.955l-7.714 6.594-15.28 13.15-7.505 6.402c-1.228 0.999-2.403 2.061-3.369 3.035l-2.645 2.444c-1.036 0.979-1.776 1.82-3.080 3.412-0.247 0.302-0.247 0.302-0.485 0.592-0.555 0.673-0.945 1.127-1.832 2.159l-4.207 6.152c-10.023 17.874-11.111 39.433-2.946 58.218 3.936 9.132 9.824 17.285 17.194 23.833l26.498 24.206c1.402 1.299 1.402 1.299 2.77 2.547 0.256 0.233 0.256 0.233 0.511 0.464 5.65 5.131 7.149 6.526 10.363 9.753 13.85 14.351 23.44 32.297 27.687 51.802 1.334 6.244 2.132 12.591 2.383 18.858 0.108 5.957-0.16 11.915-0.813 17.935l-2.831 31.813c0 1.222-0.083 2.595-0.248 4.265-0.086 0.865-0.159 1.514-0.343 3.065-0.482 4.035-0.609 5.299-0.64 6.868-0.347 4.181-0.347 8.384 0.018 12.746 1.904 16.097 9.235 31.056 20.707 42.327 5.335 5.441 11.559 9.926 18.275 13.198 6.435 3.354 13.365 5.648 20.332 6.76 2.516 0.501 4.814 1.782 6.588 3.686 1.779 1.888 2.795 4.377 2.876 6.328-0.272 2.59-1.61 4.945-3.686 6.496-2.071 1.547-4.69 2.153-7.632 1.613-18.921-2.054-36.719-10.039-50.947-22.892-16.317-14.158-27.224-33.576-30.843-54.89-0.923-5.678-1.353-11.425-1.285-17.24v-10.335c0-2.655 0-2.655-0.005-5.218l1.347-31.237c0.312-4.85 0.312-9.716-0.009-14.688-0.403-4.587-1.183-9.132-2.335-13.61-2.391-9.144-6.44-17.767-12.005-25.524-6.217-8.309-13.572-15.694-21.64-21.772l-26.953-22.57c-11.372-9.522-20.529-21.43-26.809-34.85-6.44-14.052-9.522-29.42-8.998-44.895 0.494-15.94 4.733-31.537 12.272-45.343 2.612-4.371 4.498-7.357 6.563-10.304 0.722-0.899 0.76-0.947 1.53-1.924zM529.572 188.183l3.812 4.358c2.009 2.211 4.175 4.272 6.432 6.125 4.559 3.839 9.613 7.044 15.052 9.54 10.938 4.945 22.975 6.933 34.751 5.781l47.617-3.132c20.508-1.17 40.909 3.709 58.804 14.1 0.152 0.083 0.236 0.137 0.634 0.409 0.372 0.265 0.372 0.265 0.84 0.604 0.793 0.567 1.225 0.858 1.83 1.212l5.731 3.357 1.901-6.364c9.387-31.419 22.817-71.308 38.821-115.266l17.194-46.974-81.818 28.153c-3.456 1.241-7.026 2.137-10.592 2.666-18.324 2.479-36.326-6.41-45.447-22.294l-1.635-3.18-0.728-1.463-1.409-2.826-2.842-6.023-11.6-23.707-11.037-24.046-4.93-10.661-2.979-8.875-6.98 6.706-17.269 37.812c-24.151 52.483-43.591 92.468-59.060 121.008l-1.73 3.192 7.029 8.019 15.689 17.318zM190.794 212.535h5.252c4.858 0 4.858 0 8.836-0.008l11.216 0.626 22.61 1.36 11.732 0.635 9.001-0.002c17.575-0.524 34.287-7.761 46.528-20.047 0.598-0.541 1.108-1.063 1.79-1.807 0.239-0.262 0.239-0.262 0.459-0.502 0.412-0.449 0.412-0.449 0.952-1.010l3.697-4.138 7.628-8.814 17.416-20.502-1.73-3.149c-16.050-29.209-36.222-70.51-59.133-120.84l-20.47-48.812-6.358 13.461-5.144 10.241-11.004 23.975-11.336 23.936-2.357 5.648-2.155 4.329-1.561 3.048c-9.184 16.167-27.196 25.136-45.489 22.703-3.731-0.55-7.397-1.479-11.073-2.816l-6.225-2.083-24.62-8.344-36.655-12.823-14.921-5.481 5.213 13.957 4.169 11.302 8.206 22.007c16.904 46.514 30.259 86.244 39.337 117.236l1.962 6.697 5.867-3.778c14.528-9.357 31.15-14.925 48.359-16.201zM499.609 611.745l2.266 1.025 2.222-1.116c4.595-2.306 8.685-5.509 11.393-8.794 4.436-3.673 8.141-8.153 10.921-13.206l1.224-2.224-0.996-2.335c-13.329-31.263-61.656-87.404-110.481-130.242l-2.63-2.233c-6.076-5.367-14.029-8.091-22.109-7.571s-15.619 4.241-20.836 10.204c-18.282 19.431-33.795 41.31-46.099 65.014l-1.246 2.401 1.246 2.402c2.383 4.596 5.638 8.681 8.944 11.382 3.727 4.484 8.254 8.231 13.348 11.051l2.387 1.321 2.446-1.207c13.819-6.82 26.858-15.119 38.89-24.751 39.875 41.383 83.16 77.144 109.109 88.878z" />
<glyph unicode="&#xe90f;" glyph-name="experten_1" d="M914.324 60.605l-152.953 44.84-44.301-148.965-167.774 313.452c9.378-3.395 19.672-6.521 32.013-6.521 6.737 0 13.474 1.078 20.157 2.856l103.909-194.129 26.247 88.010 94.909-27.702-106.334 201.674c9.809 3.18 19.887 7.869 29.858 16.33 3.018 2.425 4.904 5.497 7.222 8.3l157.049-298.146zM408.792 267.668l-92.699-197.147-35.463 95.394-85.854-31.69 93.615 200.219c-7.33 2.533-14.767 5.659-22.205 10.941-5.875 4.204-10.617 9.27-14.605 14.713l-142.444-304.505 145.408 53.464 56.805-152.522 148.157 314.961c-15.414-4.635-33.199-7.599-50.715-3.827zM590.147 297.041c27.163 7.599 41.607 26.301 52.332 39.99 5.605 7.276 10.509 13.474 15.576 16.33 6.198 3.395 14.336 4.527 23.606 5.982 16.384 2.425 36.595 5.389 56.104 21.773 20.642 17.408 23.929 43.331 26.355 62.248 0.97 7.545 2.21 17.947 4.312 20.911 3.341 4.851 9.971 10.024 17.031 15.629 14.659 11.48 32.93 25.816 39.72 50.661 6.899 25.492-2.425 48.936-9.27 66.075-2.749 6.899-6.144 15.522-6.036 19.079 0.162 6.252 3.395 16.168 6.575 25.816 6.413 19.402 13.689 41.445 8.408 64.027-6.036 25.816-24.953 39.074-38.804 48.775-6.952 4.958-13.528 9.593-16.115 14.013-3.988 6.899-5.174 14.659-6.683 24.522-2.21 14.767-4.958 33.145-19.564 52.547-15.252 18.917-37.78 23.66-57.56 27.917-11.749 2.479-22.797 4.797-30.343 9.593-6.36 4.096-11.803 10.348-18.055 17.624-11.533 13.42-25.869 30.127-51.685 36.702-22.366 5.605-41.715-1.509-56.32-8.084-9.108-4.15-16.222-7.384-26.031-7.384h-0.054c-10.725 0.162-18.055 3.395-27.432 7.384-13.528 5.821-29.319 12.719-52.601 8.354-29.103-5.443-42.253-23.821-51.793-37.241-5.551-7.869-10.402-14.659-17.947-19.24-8.408-5.174-15.36-5.605-24.899-6.252-14.282-0.97-33.846-2.156-55.512-21.396-22.959-20.318-24.899-42.846-26.301-59.284-0.916-10.563-1.671-17.408-5.659-23.714-3.773-5.928-9.917-11.102-17.031-17.031-14.12-11.857-31.69-26.57-39.235-55.188-7.545-28.941 1.779-47.104 8.623-60.416 3.773-7.491 5.767-11.587 5.605-16.222-0.269-9.917-3.719-19.887-7.384-30.343-5.443-15.683-11.641-33.469-7.976-54.218 4.365-24.738 22.366-40.744 36.81-53.625 6.737-5.982 14.444-12.827 16.546-17.516 2.425-5.282 4.365-13.797 6.467-22.797 5.174-22.474 11.587-50.661 34.547-66.991 17.947-12.827 36.541-15.36 51.523-17.246 7.168-0.97 14.605-1.886 17.677-3.773 3.18-1.886 8.408-8.3 13.043-13.905 11.803-14.228 28.025-33.792 54.865-41.876 23.121-7.060 48.020-0.431 66.452 6.090 17.246 6.090 27.163 6.198 43.439-0.539 11.695-4.743 26.139-10.617 43.547-10.617v0c7.006 0 14.12 0.97 21.127 2.856zM467.375 347.163c-14.067-4.958-27.217-9.162-38.966-5.605-14.12 4.312-24.037 16.222-33.684 27.81-7.491 9.054-14.552 17.677-24.037 23.498-11.156 6.737-23.283 8.3-35.032 9.917-11.587 1.455-22.582 2.964-31.475 9.27-9.27 6.683-13.474 24.845-17.139 40.906-2.587 11.372-5.066 22.097-9.485 31.528-5.982 12.989-16.815 22.582-27.217 31.906-10.779 9.647-21.019 18.701-22.69 28.295-1.671 9.378 1.832 19.348 6.198 31.96 4.365 12.557 9.378 26.893 9.863 43.709 0.377 16.168-5.605 28.025-10.509 37.511-5.389 10.617-8.408 16.492-5.12 29.103 3.934 14.983 13.15 22.69 24.792 32.445 8.677 7.276 18.594 15.576 25.977 27.325 9.971 15.737 11.264 31.205 12.342 43.655 1.293 14.767 2.264 21.666 11.641 30.019 10.24 9.108 16.869 9.539 28.941 10.24 12.18 0.808 27.379 1.779 45.11 12.557 15.306 9.27 23.983 21.558 31.043 31.475 8.677 12.288 12.719 17.3 23.66 19.348 10.024 1.832 16.546-0.97 27.163-5.443 11.048-4.797 24.792-10.725 45.541-11.048 18.971 0 32.822 6.306 43.87 11.372 12.072 5.551 17.785 7.707 27.055 5.443 11.695-2.964 18.648-10.563 29.049-22.69 7.491-8.677 15.953-18.486 27.81-26.031 14.282-9.108 30.504-12.557 44.948-15.629 13.905-2.964 26.893-5.659 31.906-11.803 7.437-9.917 8.839-19.618 10.725-32.013 1.832-12.019 3.934-25.654 11.911-39.72 7.491-13.096 19.025-21.181 29.211-28.349 12.072-8.461 19.025-13.635 21.019-22.528 2.533-10.563-2.479-25.6-7.276-40.205-4.15-12.557-8.461-25.654-8.785-38.427-0.323-12.611 4.527-24.792 9.216-36.595 5.336-13.204 10.671-26.893 7.707-38.157-3.018-10.671-12.881-18.486-24.36-27.486-9.432-7.33-19.079-14.929-26.193-25.384-8.192-11.857-10.024-26.355-11.803-40.421-1.779-14.282-3.503-27.702-10.941-33.954-9.917-8.246-20.642-9.971-34.115-11.965-11.803-1.779-25.169-3.719-38.265-10.941-13.096-7.168-21.72-18.216-29.373-28.025-10.078-12.827-16.815-20.965-29.103-24.414-12.126-3.395-22.959 0.755-36.056 6.090-11.102 4.527-23.606 9.593-38.265 9.593-13.312 0.054-25.223-4.15-36.81-8.138zM605.885 665.95l-16.977 17.031c-2.371 2.317-5.228 3.503-8.515 3.503s-6.198-1.132-8.569-3.503l-82.297-82.297-36.864 36.972c-2.371 2.317-5.174 3.503-8.461 3.503-3.395 0-6.252-1.186-8.569-3.503l-17.031-17.031c-2.317-2.371-3.503-5.228-3.503-8.569s1.132-6.144 3.449-8.515l62.41-62.356c2.317-2.317 5.174-3.503 8.515-3.503s6.144 1.186 8.461 3.503l17.139 17.031 90.759 90.705c2.371 2.317 3.503 5.174 3.503 8.515s-1.078 6.198-3.449 8.515z" />
<glyph unicode="&#xe910;" glyph-name="partner_1" d="M1015.916 199.384v-115.173h-61.871l0.108 114.419c-1.186 7.060-21.612 38.535-97.011 89.627-59.715 40.637-121.209 64.943-121.209 64.943l-30.343 12.45v174.188l30.936 14.013c0 0 9.162 3.395 9.647 11.641l2.803 179.362c0 35.894-44.571 69.686-71.518 69.686h-76.746c-26.84 0-71.518-33.792-71.518-69.686l2.964-179.362c0.323-8.246 9.593-11.641 9.593-11.641l30.989-14.013v-174.134l-30.397-12.45c0 0-61.602-24.307-121.317-64.943-75.291-51.092-95.771-82.567-96.957-89.627v-114.419h-61.925v115.173c0 70.979 169.068 178.931 248.563 208.141v93.777c-29.103 12.773-40.637 42.792-40.637 63.596l-2.856 179.416c-0.054 71.357 73.459 132.096 133.497 132.096h76.638c60.039 0 133.551-60.739 133.551-132.096l-3.018-179.416c0-20.803-11.48-50.823-40.475-63.596v-93.831c79.441-29.211 248.509-137.162 248.509-208.141zM357.807 402.675v41.068c18.001 9.162 27.54 27.917 27.54 45.864l1.94 121.317c0 51.631-50.607 92.915-93.292 93.885v0.108h-52.008v-0.108c-42.685-1.024-93.292-42.307-93.292-93.939l1.94-121.317c0-17.947 9.485-36.702 27.486-45.864v-57.128c-33.469-13.043-76.8-42.2-82.944-46.296-85.315-58.152-85.315-88.172-85.315-98.142v-77.878h51.038v76.908c8.246 25.869 27.432 39.235 71.033 68.392 38.427 25.6 97.172 52.386 97.172 52.386v114.634c0 0-26.84 12.342-27.217 12.342-0.054 0.485-0.162 0.916-0.216 1.347l-1.994 121.101c0 21.504 27.756 42.631 43.87 42.631h48.775c16.115 0 43.87-21.073 43.87-42.631l-1.886-121.101c0-0.431-0.162-0.916-0.269-1.293-0.431 0-27.271-12.396-27.271-12.396v-94.963l51.038 21.073z" />
<glyph unicode="&#xe911;" glyph-name="support_1" d="M413.049 355.732h34.6v-62.787l-30.882-12.719c0 0-62.464-24.792-123.096-65.913-76.477-51.955-97.28-83.968-98.52-90.974l0.108-116.197h-62.895v116.898c0 72.057 171.709 181.571 252.389 211.375v22.151c9.27-1.024 18.648-1.832 28.295-1.832zM645.12 335.36v95.286c29.588 12.935 41.391 43.547 41.391 64.62l2.91 182.164c0 72.435-74.59 134.036-135.599 134.036h-77.662c-61.063 0-135.599-61.602-135.599-134.036l2.964-182.164c0-21.073 11.641-51.631 41.229-64.62v-6.144c13.528-7.168 62.841-3.665 62.841-3.665v48.829l-31.367 14.282c0 0-9.378 3.449-9.863 11.803l-2.91 182.164c0 36.433 45.379 70.764 72.704 70.764h77.608c27.432 0 72.758-34.331 72.758-70.764l-2.964-182.164c-0.485-8.354-9.809-11.803-9.809-11.803l-31.475-14.228v-176.775l30.774-12.665c0 0 62.518-24.792 123.149-65.967 76.315-52.008 97.28-83.968 98.466-90.974v-116.143h62.787v116.898c0.108 71.949-171.547 181.464-252.335 211.267zM574.572 396.315v-17.139c0-15.091-14.875-27.325-33.253-27.325h-63.596c-13.15 0-24.414 6.252-29.858 15.468h-37.295c-76.746 0-140.665 46.349-152.576 106.981h-25.223c-36.972 0-67.045 24.792-67.045 55.296v94.262c0 30.504 30.073 55.296 67.045 55.296h23.66c6.683 96.525 97.711 201.728 202.483 201.728h104.017c103.478 0 204.423-102.616 211.375-201.728h23.552c37.026 0 67.045-24.738 67.045-55.296v-94.208c0-30.558-30.073-55.35-67.045-55.35h-48.128c-13.851 0-24.899 9.216-24.899 20.534v171.978c0 82.082-73.512 172.894-162.816 172.894h-103.586c-82.944 0-152.684-93.831-152.684-172.894v-171.978c0 0 0 0 0 0v0c0-47.697 46.996-86.501 104.717-86.501h37.403c5.389 9.162 16.707 15.414 29.858 15.414h63.596c18.378-0.108 33.253-12.288 33.253-27.432zM774.629 515.368h23.175c9.593 0 17.246 6.413 17.246 14.282v94.208c0 7.869-7.707 14.228-17.246 14.228h-23.175v-122.718zM255.946 638.033h-23.175c-9.593 0-17.246-6.36-17.246-14.228v-94.208c0-7.869 7.761-14.282 17.246-14.282h23.175v122.718z" />
<glyph unicode="&#xe918;" glyph-name="search" d="M697.344 541.184c0-153.6-124.928-278.528-278.528-278.528s-279.552 124.928-279.552 278.528c0 154.624 124.928 279.552 279.552 279.552 153.6 0 278.528-125.952 278.528-279.552zM763.904 304.64c48.128 68.608 73.728 152.576 73.728 236.544 0 231.424-187.392 418.816-418.816 418.816s-418.816-187.392-418.816-418.816 187.392-418.816 418.816-418.816c83.968 0 167.936 26.624 237.568 73.728l260.096-260.096 107.52 107.52z" />
<glyph unicode="&#xe919;" glyph-name="slider-forwards" horiz-adv-x="585" d="M79.792-64l-79.792 81.92 424.495 430.080-424.495 430.080 79.792 81.92 505.351-512z" />
<glyph unicode="&#xe91a;" glyph-name="slider-back" horiz-adv-x="585" d="M505.208-64l79.792 81.92-424.495 430.080 424.495 430.080-79.792 81.92-505.351-512z" />
<glyph unicode="&#xe91d;" glyph-name="wishlisht" horiz-adv-x="808" d="M0-64v1024h808.421v-1024l-404.211 233.334z" />
</font>
</defs>
</svg>
