<?xml version="1.0" encoding="utf-8"?>
<!-- Generator: Adobe Illustrator 15.1.0, SVG Export Plug-In . SVG Version: 6.00 Build 0)  -->
<!DOCTYPE svg PUBLIC "-//W3C//DTD SVG 1.1//EN" "http://www.w3.org/Graphics/SVG/1.1/DTD/svg11.dtd">
<svg version="1.1" id="Ebene_1" xmlns="http://www.w3.org/2000/svg" xmlns:xlink="http://www.w3.org/1999/xlink" x="0px" y="0px"
	 width="102.333px" height="28.333px" viewBox="21.667 15.667 102.333 28.333"
	 enable-background="new 21.667 15.667 102.333 28.333" xml:space="preserve">
<path fill="#FFFFFF" d="M27.485,19.25v7.909h-1.959V19.25h-2.692v-2.003h7.344v2.003H27.485z M30.865,27.159v-9.912h1.82v3.624
	c0.317-0.433,0.664-0.756,1.042-0.967c0.378-0.21,0.794-0.318,1.245-0.318c0.504,0,0.939,0.098,1.307,0.295
	c0.368,0.198,0.652,0.486,0.855,0.871c0.124,0.237,0.212,0.515,0.265,0.835c0.054,0.319,0.08,0.819,0.08,1.497v4.076H35.66v-3.587
	c0-0.825-0.095-1.394-0.284-1.704c-0.191-0.307-0.519-0.46-0.987-0.46c-0.528,0-0.945,0.186-1.249,0.558
	c-0.304,0.375-0.455,0.886-0.455,1.539v3.652h-1.82V27.159z M45.516,24.76c-0.242,0.849-0.66,1.505-1.256,1.967
	s-1.321,0.693-2.177,0.693c-1.086,0-1.945-0.356-2.578-1.068c-0.633-0.713-0.95-1.68-0.95-2.897c0-1.221,0.315-2.186,0.947-2.893
	c0.631-0.71,1.491-1.063,2.581-1.063c1.132,0,2.003,0.369,2.616,1.102c0.611,0.734,0.917,1.782,0.917,3.142v0.313h-5.013
	c0.011,0.542,0.15,0.972,0.417,1.29c0.268,0.32,0.621,0.479,1.062,0.479c0.344,0,0.64-0.094,0.889-0.277
	c0.248-0.186,0.427-0.448,0.538-0.788H45.516L45.516,24.76L45.516,24.76z M40.656,22.515l2.938,0.007
	c-0.031-0.46-0.178-0.823-0.442-1.085c-0.263-0.265-0.604-0.396-1.027-0.396c-0.419,0-0.761,0.133-1.023,0.397
	C40.837,21.706,40.689,22.063,40.656,22.515z M48.533,27.159h-1.82V19.76h1.82v0.979c0.276-0.421,0.562-0.732,0.854-0.935
	c0.293-0.203,0.601-0.304,0.924-0.304c0.064,0,0.185,0.013,0.367,0.04c0.064,0.004,0.111,0.009,0.144,0.014v1.951
	c-0.06-0.009-0.129-0.017-0.208-0.021c-0.079-0.005-0.2-0.007-0.368-0.007c-0.532,0-0.951,0.21-1.255,0.63
	c-0.305,0.421-0.458,1.002-0.458,1.741L48.533,27.159L48.533,27.159z M53.371,20.873c0.322-0.434,0.676-0.76,1.059-0.979
	s0.793-0.329,1.229-0.329c0.57,0,1.056,0.136,1.462,0.411c0.407,0.272,0.69,0.648,0.853,1.132c0.295-0.495,0.651-0.876,1.069-1.144
	c0.421-0.265,0.872-0.399,1.358-0.399c0.493,0,0.926,0.104,1.299,0.308c0.373,0.207,0.66,0.5,0.862,0.879
	c0.123,0.237,0.214,0.514,0.268,0.834c0.054,0.318,0.078,0.818,0.078,1.497v4.075h-1.819v-3.586c0-0.826-0.093-1.394-0.284-1.703
	c-0.19-0.307-0.52-0.463-0.988-0.463c-0.528,0-0.944,0.188-1.249,0.561c-0.302,0.373-0.453,0.885-0.453,1.539v3.652h-1.767v-3.586
	c0-0.826-0.095-1.395-0.286-1.703c-0.189-0.309-0.519-0.463-0.987-0.463c-0.529,0-0.945,0.186-1.247,0.558
	c-0.305,0.375-0.456,0.886-0.456,1.539v3.652h-1.82v-7.398h1.82v1.114H53.371z M63.977,23.451c0-1.223,0.331-2.188,0.992-2.896
	c0.663-0.705,1.569-1.058,2.723-1.058c1.15,0,2.055,0.353,2.714,1.058c0.661,0.708,0.99,1.672,0.99,2.896
	c0,1.226-0.331,2.192-0.992,2.902c-0.664,0.71-1.566,1.066-2.712,1.066c-1.146,0-2.052-0.356-2.716-1.066
	C64.311,25.644,63.977,24.677,63.977,23.451z M65.947,23.465c0,0.653,0.158,1.175,0.475,1.563c0.318,0.389,0.741,0.584,1.27,0.584
	c0.523,0,0.946-0.195,1.262-0.586c0.316-0.391,0.473-0.916,0.473-1.571c0-0.653-0.156-1.171-0.471-1.559
	c-0.315-0.387-0.736-0.58-1.267-0.58c-0.527,0-0.95,0.195-1.268,0.586C66.105,22.292,65.947,22.814,65.947,23.465z M72.954,17.811
	h1.82v1.949h1.362v1.744h-1.362v3.128c0,0.493,0.034,0.782,0.104,0.872c0.07,0.089,0.233,0.133,0.498,0.133h0.76v1.783h-1.229
	c-0.698,0-1.198-0.14-1.501-0.42c-0.302-0.28-0.453-0.733-0.453-1.363v-4.133h-0.855v-1.745h0.855V17.811z M78.894,27.159h-1.82
	V19.76h1.82v0.979c0.277-0.421,0.563-0.732,0.855-0.935c0.293-0.203,0.601-0.304,0.923-0.304c0.063,0,0.187,0.013,0.368,0.04
	c0.063,0.004,0.112,0.009,0.144,0.014v1.951c-0.061-0.009-0.129-0.017-0.209-0.021c-0.077-0.005-0.2-0.007-0.366-0.007
	c-0.532,0-0.952,0.21-1.257,0.63c-0.305,0.421-0.458,1.002-0.458,1.741V27.159L78.894,27.159z M88.537,25.967
	c0,0.289,0.023,0.512,0.064,0.667c0.042,0.154,0.114,0.272,0.214,0.359v0.168h-2.007l-0.091-0.813
	c-0.315,0.366-0.673,0.638-1.068,0.813c-0.397,0.174-0.857,0.261-1.379,0.261c-0.809,0-1.445-0.222-1.908-0.662
	c-0.466-0.444-0.698-1.042-0.698-1.799c0-0.7,0.21-1.224,0.627-1.57c0.418-0.346,1.136-0.573,2.156-0.679
	c0.134-0.014,0.322-0.03,0.565-0.049c1.169-0.103,1.755-0.388,1.755-0.857c0-0.282-0.112-0.491-0.337-0.63
	c-0.226-0.137-0.563-0.207-1.015-0.207c-0.455,0-0.787,0.1-1.001,0.297c-0.214,0.2-0.323,0.511-0.33,0.935l-1.899,0.007v-0.025
	c0-0.872,0.286-1.537,0.856-1.995c0.571-0.458,1.398-0.686,2.479-0.686c0.532,0,1.005,0.065,1.414,0.198
	c0.411,0.13,0.753,0.326,1.029,0.586c0.209,0.2,0.358,0.455,0.445,0.76c0.087,0.307,0.13,0.77,0.13,1.391v3.53H88.537z
	 M86.761,23.593c-0.228,0.158-0.662,0.274-1.304,0.356c-0.079,0.015-0.138,0.022-0.177,0.026c-0.684,0.09-1.116,0.198-1.298,0.329
	c-0.181,0.128-0.271,0.33-0.271,0.602c0,0.286,0.091,0.517,0.27,0.687c0.179,0.172,0.418,0.259,0.716,0.259
	c0.616,0,1.118-0.185,1.504-0.557c0.384-0.37,0.577-0.854,0.577-1.446c0-0.073,0-0.125-0.004-0.162
	C86.772,23.651,86.768,23.621,86.761,23.593z M90.034,27.159V19.76h1.82v1.113c0.321-0.434,0.674-0.76,1.058-0.978
	c0.384-0.22,0.793-0.329,1.229-0.329c0.493,0,0.925,0.104,1.299,0.309c0.373,0.205,0.658,0.498,0.863,0.877
	c0.123,0.236,0.212,0.515,0.265,0.833c0.055,0.318,0.079,0.818,0.079,1.498v4.074h-1.82v-3.585c0-0.825-0.093-1.394-0.282-1.704
	c-0.19-0.307-0.52-0.463-0.988-0.463c-0.526,0-0.943,0.188-1.247,0.561c-0.305,0.374-0.455,0.885-0.455,1.539v3.652H90.034
	L90.034,27.159z M97.894,24.732h1.922c0.028,0.373,0.171,0.639,0.429,0.804c0.257,0.167,0.662,0.249,1.216,0.249
	c0.378,0,0.683-0.067,0.911-0.2c0.23-0.133,0.344-0.309,0.344-0.521c0-0.193-0.064-0.331-0.195-0.417
	c-0.127-0.085-0.401-0.146-0.82-0.188l-1.645-0.18c-0.608-0.067-1.087-0.306-1.442-0.714c-0.355-0.409-0.532-0.927-0.532-1.553
	c0-0.813,0.274-1.434,0.822-1.865c0.549-0.429,1.34-0.646,2.371-0.646c0.986,0,1.758,0.214,2.313,0.639
	c0.558,0.427,0.836,1.017,0.836,1.766v0.067h-1.819c-0.042-0.324-0.182-0.569-0.416-0.727c-0.234-0.157-0.569-0.236-1.012-0.236
	c-0.369,0-0.657,0.061-0.865,0.179c-0.208,0.121-0.312,0.286-0.312,0.496c0,0.2,0.104,0.356,0.309,0.464
	c0.206,0.107,0.558,0.184,1.055,0.234l1.271,0.126c0.63,0.059,1.116,0.276,1.455,0.66c0.339,0.382,0.51,0.896,0.51,1.545
	c0,0.886-0.28,1.559-0.84,2.017c-0.558,0.462-1.376,0.69-2.455,0.69c-1.088,0-1.92-0.226-2.493-0.677
	C98.24,26.292,97.934,25.623,97.894,24.732L97.894,24.732z M106.328,27.159v-5.656h-0.857V19.76h0.857v-0.737
	c0-0.634,0.15-1.089,0.451-1.364c0.3-0.273,0.799-0.412,1.502-0.412h1.229v1.776h-0.761c-0.244,0-0.408,0.04-0.483,0.118
	c-0.079,0.077-0.12,0.23-0.12,0.459v0.16h1.364v1.745h-1.364v5.654H106.328z M117.021,24.76c-0.242,0.849-0.66,1.505-1.258,1.967
	c-0.595,0.463-1.32,0.693-2.176,0.693c-1.086,0-1.945-0.356-2.578-1.068c-0.634-0.713-0.951-1.68-0.951-2.897
	c0-1.221,0.316-2.186,0.949-2.893c0.63-0.71,1.491-1.063,2.58-1.063c1.132,0,2.004,0.369,2.615,1.102
	c0.612,0.734,0.917,1.782,0.917,3.142v0.313h-5.012c0.009,0.542,0.148,0.972,0.417,1.29c0.27,0.32,0.622,0.479,1.063,0.479
	c0.344,0,0.642-0.094,0.889-0.277c0.248-0.186,0.427-0.448,0.536-0.788H117.021L117.021,24.76L117.021,24.76z M112.162,22.515
	l2.937,0.007c-0.03-0.46-0.179-0.823-0.441-1.085c-0.263-0.265-0.604-0.396-1.025-0.396s-0.763,0.133-1.023,0.397
	C112.342,21.706,112.193,22.063,112.162,22.515z M120.038,27.159h-1.819V19.76h1.819v0.979c0.277-0.421,0.562-0.732,0.854-0.935
	c0.292-0.203,0.6-0.304,0.923-0.304c0.064,0,0.186,0.013,0.367,0.04c0.064,0.004,0.111,0.009,0.144,0.014v1.951
	c-0.061-0.009-0.13-0.017-0.208-0.021c-0.077-0.005-0.201-0.007-0.366-0.007c-0.532,0-0.95,0.21-1.258,0.63
	c-0.306,0.421-0.457,1.002-0.457,1.741L120.038,27.159L120.038,27.159z"/>
<path fill="#FFFFFF" d="M24.045,31.716h6.773c2.191,0,3.861,0.455,5.009,1.364c1.147,0.909,1.722,2.234,1.722,3.977
	c0,1.738-0.571,3.059-1.715,3.963c-1.143,0.904-2.816,1.357-5.017,1.357h-6.774V31.716H24.045z M28.14,34.359v5.188h2.037
	c1.063,0,1.823-0.202,2.283-0.609c0.46-0.404,0.69-1.069,0.69-1.99c0-0.916-0.232-1.578-0.696-1.982
	c-0.465-0.407-1.224-0.609-2.276-0.609L28.14,34.359L28.14,34.359z M47.326,31.729c0.918,0,1.655,0.044,2.208,0.135
	c0.552,0.089,0.983,0.226,1.293,0.414c0.396,0.234,0.697,0.551,0.903,0.946c0.207,0.395,0.312,0.854,0.312,1.371
	c0,0.628-0.156,1.182-0.465,1.66c-0.31,0.477-0.736,0.82-1.279,1.032c0.467,0.197,0.793,0.439,0.982,0.729
	c0.188,0.291,0.3,0.805,0.333,1.537c0.004,0.082,0.009,0.195,0.014,0.339c0.069,1.392,0.253,2.165,0.558,2.318v0.165h-4.552
	c-0.139-0.226-0.214-0.663-0.229-1.312c-0.01-0.378-0.026-0.671-0.05-0.876c-0.043-0.389-0.173-0.663-0.39-0.821
	c-0.217-0.157-0.58-0.236-1.09-0.236h-2.444v3.246h-4.151V31.732L47.326,31.729L47.326,31.729z M43.431,36.33h2.387
	c0.624,0,1.064-0.074,1.317-0.223c0.255-0.149,0.382-0.397,0.382-0.749c0-0.347-0.12-0.587-0.36-0.723
	c-0.24-0.138-0.72-0.206-1.44-0.206h-2.286V36.33L43.431,36.33z M57.881,31.729v5.205c0,1.07,0.16,1.813,0.481,2.229
	c0.322,0.414,0.877,0.621,1.668,0.621c0.79,0,1.343-0.207,1.661-0.619c0.319-0.413,0.476-1.157,0.476-2.231v-5.205h4.099v5.594
	c0,1.848-0.499,3.199-1.497,4.06c-0.997,0.859-2.578,1.288-4.74,1.288c-2.15,0-3.727-0.432-4.735-1.296
	c-1.007-0.865-1.511-2.213-1.511-4.052v-5.594H57.881L57.881,31.729z M77.395,36.2c-0.065-0.658-0.298-1.16-0.692-1.504
	c-0.396-0.347-0.935-0.52-1.623-0.52c-0.876,0-1.546,0.246-2.01,0.74c-0.466,0.495-0.697,1.207-0.697,2.139
	c0,0.925,0.231,1.636,0.697,2.122c0.466,0.491,1.134,0.734,2.01,0.734c0.635,0,1.146-0.144,1.534-0.435
	c0.387-0.289,0.644-0.721,0.769-1.292h4.724c-0.215,1.474-0.917,2.587-2.105,3.341c-1.189,0.755-2.829,1.131-4.921,1.131
	c-2.348,0-4.119-0.471-5.316-1.415c-1.195-0.943-1.793-2.339-1.793-4.186c0-1.854,0.598-3.251,1.793-4.192
	c1.197-0.944,2.969-1.415,5.316-1.415c2.192,0,3.888,0.409,5.089,1.227c1.199,0.818,1.836,1.994,1.908,3.524H77.395L77.395,36.2
	L77.395,36.2z M83.627,42.377V31.729h4.094v3.688l3.765-3.688h5.529l-4.406,3.853l4.844,6.795h-5.095l-2.852-4.319l-1.787,1.462
	v2.857H83.627z M97.925,42.377V31.729h11.197v2.613h-7.102v1.267h5.751v2.627h-5.751v1.397h7.452v2.743H97.925L97.925,42.377
	L97.925,42.377z M118.832,31.729c0.92,0,1.658,0.044,2.209,0.134s0.983,0.227,1.295,0.415c0.394,0.234,0.695,0.551,0.904,0.946
	c0.207,0.395,0.309,0.854,0.309,1.371c0,0.628-0.153,1.182-0.462,1.66c-0.312,0.477-0.737,0.82-1.281,1.032
	c0.468,0.197,0.795,0.439,0.983,0.729c0.188,0.291,0.3,0.805,0.331,1.537c0.005,0.082,0.011,0.195,0.016,0.339
	c0.067,1.392,0.253,2.165,0.558,2.318v0.165h-4.552c-0.139-0.226-0.214-0.663-0.228-1.312c-0.011-0.378-0.028-0.671-0.052-0.876
	c-0.042-0.389-0.172-0.663-0.388-0.821c-0.218-0.157-0.581-0.236-1.091-0.236h-2.444v3.246h-4.15V31.732L118.832,31.729
	L118.832,31.729L118.832,31.729z M114.938,36.33h2.388c0.624,0,1.064-0.074,1.318-0.223c0.255-0.149,0.383-0.397,0.383-0.749
	c0-0.347-0.122-0.587-0.362-0.723c-0.239-0.138-0.721-0.206-1.44-0.206h-2.286V36.33z"/>
</svg>
